<svg xmlns="http://www.w3.org/2000/svg" viewBox="0 0 3333.34 3117.95" shape-rendering="geometricPrecision" text-rendering="geometricPrecision" image-rendering="optimizeQuality" fill-rule="evenodd" fill="firebrick" clip-rule="evenodd"><path d="M46.36 0h564.67c25.5 0 46.36 20.86 46.36 46.36v579.6c0 25.5-20.86 46.36-46.36 46.36H46.36C20.86 672.32 0 651.46 0 625.96V46.36C0 20.86 20.86 0 46.36 0zm5.84 2445.63h1105.62c25.5 0 46.36 20.87 46.36 46.36v579.6c0 25.48-20.87 46.36-46.36 46.36H52.2c-25.48 0-46.36-20.86-46.36-46.36v-579.6c0-25.5 20.86-46.36 46.36-46.36zm2674.37 0h556.94c25.5 0 46.36 20.88 46.36 46.36v579.6c0 25.48-20.87 46.36-46.36 46.36h-556.94c-25.48 0-46.36-20.86-46.36-46.36v-579.6c0-25.5 20.86-46.36 46.36-46.36zm-1333.86 0h1105.62c25.5 0 46.36 20.87 46.36 46.36v579.6c0 25.48-20.87 46.36-46.36 46.36H1392.71c-25.48 0-46.36-20.86-46.36-46.36v-579.6c0-25.5 20.86-46.36 46.36-46.36zm788.65-815.17h1105.62c25.5 0 46.36 20.87 46.36 46.36v579.6c0 25.48-20.87 46.36-46.36 46.36H2181.36c-25.48 0-46.36-20.86-46.36-46.36v-579.6c0-25.5 20.86-46.36 46.36-46.36zm-1336.79 0h1105.62c25.5 0 46.36 20.87 46.36 46.36v579.6c0 25.48-20.87 46.36-46.36 46.36H844.57c-25.48 0-46.36-20.86-46.36-46.36v-579.6c0-25.5 20.86-46.36 46.36-46.36zm-798.21 0h564.67c25.5 0 46.36 20.86 46.36 46.36v579.6c0 25.5-20.86 46.36-46.36 46.36H46.36c-25.5 0-46.36-20.85-46.36-46.36v-579.6c0-25.5 20.86-46.36 46.36-46.36zm5.84-815.28h1105.62c25.5 0 46.36 20.87 46.36 46.36v579.6c0 25.48-20.87 46.36-46.36 46.36H52.2c-25.48 0-46.36-20.86-46.36-46.36v-579.6c0-25.5 20.86-46.36 46.36-46.36zm2674.37 0h556.94c25.5 0 46.36 20.87 46.36 46.36v579.6c0 25.48-20.87 46.36-46.36 46.36h-556.94c-25.48 0-46.36-20.86-46.36-46.36v-579.6c0-25.5 20.86-46.36 46.36-46.36zm-1333.86 0h1105.62c25.5 0 46.36 20.87 46.36 46.36v579.6c0 25.48-20.87 46.36-46.36 46.36H1392.71c-25.48 0-46.36-20.86-46.36-46.36v-579.6c0-25.5 20.86-46.36 46.36-46.36zM2181.36.01h1105.62c25.5 0 46.36 20.87 46.36 46.36v579.6c0 25.48-20.87 46.36-46.36 46.36H2181.36c-25.48 0-46.36-20.86-46.36-46.36V46.37c0-25.5 20.86-46.36 46.36-46.36zM844.57.01h1105.62c25.5 0 46.36 20.87 46.36 46.36v579.6c0 25.48-20.87 46.36-46.36 46.36H844.57c-25.48 0-46.36-20.86-46.36-46.36V46.37c0-25.5 20.86-46.36 46.36-46.36z"/></svg>