<svg xmlns="http://www.w3.org/2000/svg"  viewBox="0 0 333333 333333" shape-rendering="geometricPrecision" text-rendering="geometricPrecision" fill="#fec40d" image-rendering="optimizeQuality" fill-rule="evenodd" clip-rule="evenodd"><path d="M255801 102974c-2292-4719-4468-9484-5549-14549-858-4022-1026-8234-12-12761-1886 3327-3720 6687-5480 10094-7264 14058-15050 31297-4561 45907 3083 4294 7519 7154 13133 6389 4843-659 8860-4554 9581-11250 951-8839-3437-16258-7113-23830zm-226974-2261C18218 82320 10321 62960 1996 42726c4848 19045 9920 37865 17749 56628l9083 1359zm34138-12769c-2882-21037-7321-42103-13136-63197 8387 17537 14465 36679 19481 56559l-6345 6638zM20635 16790c9190 34183 5117 38171 8760 65684 631 4765 1321 9250 3646 12859 1319 2047 3164 3814 5822 5190 11024 5707 17544-684 20073-11109 293-3461-655-7315-2602-11330-2566-5290-6866-10857-12349-16165-13933-13489-16090-26824-23350-45129zm95493 299751c-3275-16505-10117-28792-18647-40371l22763-5844c385 13236 1230 26162 3499 38898l-7615 7317zm-46559-69160c-5201-685-10377-1493-15200-3380-3830-1498-7438-3677-10659-7017 1738 3406 3533 6787 5407 10132 7735 13805 17837 29796 35809 29086 5282-209 10112-2337 12565-7444 2117-4406 1078-9904-4114-14193-6855-5661-15464-6084-23809-7185zm-11557-36630c-5178-840-10328-1800-15093-3830-3784-1611-7326-3896-10446-7330 1637 3456 3330 6889 5105 10289 7321 14029 16944 30313 34929 30137 5285-51 10176-2035 12781-7068 2247-4341 1371-9867-3691-14308-6684-5862-15276-6541-23585-7889zm-10348-33661c-5130-1100-10224-2319-14881-4585-3698-1800-7120-4261-10063-7848 1459 3534 2979 7048 4579 10533 6605 14380 15395 31128 33366 31859 5281 215 10266-1520 13121-6415 2463-4222 1867-9785-2965-14476-6380-6192-14928-7302-23157-9067zm-12359-35398c-5169-893-10309-1906-15053-3984-3767-1650-7285-3972-10370-7437 1600 3473 3259 6923 4998 10341 7177 14103 16632 30485 34618 30494 5286 2 10197-1931 12853-6937 2291-4318 1473-9853-3544-14346-6623-5931-15209-6697-23502-8131zm-11014-34567c-5068-1355-10096-2827-14633-5324-3604-1983-6898-4611-9658-8341 1281 3602 2622 7188 4046 10748 5878 14692 13820 31859 31731 33487 5265 478 10330-1005 13425-5751 2671-4094 2354-9680-2238-14606-6062-6503-14543-8039-22674-10214zm96421 121113c3538-3874 6978-7824 9454-12373 1966-3613 3323-7604 3637-12232 863 3725 1667 7468 2387 11234 2972 15543 5539 34283-8669 45311-4176 3242-9241 4723-14407 2395-4457-2008-7202-6883-5991-13508 1600-8745 7914-14612 13590-20828zm-12514-35023c3538-3874 6978-7824 9454-12373 1965-3613 3323-7603 3637-12232 863 3725 1667 7468 2387 11234 2971 15543 5539 34283-8669 45312-4175 3241-9241 4722-14407 2395-4456-2009-7201-6883-5990-13508 1600-8745 7914-14612 13589-20828zm-12514-35023c3537-3873 6978-7824 9454-12373 1966-3613 3323-7603 3637-12232 863 3725 1667 7468 2387 11235 2972 15542 5539 34282-8669 45311-4175 3241-9241 4723-14407 2394-4457-2008-7202-6883-5991-13508 1600-8745 7914-14612 13590-20828zm-11910-35183c3538-3873 6978-7824 9454-12372 1966-3613 3324-7604 3637-12232 863 3725 1667 7468 2387 11235 2972 15542 5539 34282-8669 45311-4175 3241-9241 4723-14407 2395-4457-2008-7202-6883-5991-13508 1600-8745 7914-14612 13589-20828zM70817 87900c3339-4045 6578-8163 8823-12830 1783-3706 2939-7760 3021-12398 1049 3678 2038 7375 2945 11101 3745 15374 7246 33963-6392 45688-4008 3446-8993 5179-14269 3112-4552-1783-7537-6515-6659-13191 1161-8814 7174-14989 12531-21481zm222769 37425c14647-15373 26885-32325 39747-50026-9201 17365-18569 34459-30600 50846l-9147-820zm-30165-20459c7761-19765 17043-39190 27666-58318-12285 15065-22705 32234-32268 50370l4602 7947zm57914-59167c-16991 31052-13973 35888-24000 61767-1737 4481-3465 8677-6575 11637-1764 1678-3974 2960-6882 3671-12059 2946-16889-4801-16887-15530 531-3431 2361-6955 5200-10397 3741-4535 9233-8931 15812-12797 16721-9824 21961-22274 33332-38351zM157857 314483c7074-15267 16620-25594 27640-34836l-20743-11047c-3494 12772-7363 25134-12572 36976l5676 8906zm61554-56232c5215 560 10436 996 15568 300 4076-553 8096-1820 12013-4306-2492 2900-5034 5763-7644 8572-10771 11592-24359 24750-41657 19822-5083-1448-9276-4655-10456-10197-1018-4781 1288-9879 7345-12822 7996-3885 16462-2266 24831-1369zm19868-32872c5230 405 10461 686 15570-163 4057-674 8038-2059 11880-4661-2406 2973-4861 5910-7387 8795-10422 11907-23614 25463-41050 21051-5124-1296-9409-4377-10754-9882-1160-4748 994-9913 6961-13034 7878-4121 16388-2754 24780-2106zm17994-30272c5244 141 10483 157 15542-947 4019-878 7924-2462 11630-5254-2252 3090-4556 6147-6933 9156-9809 12417-22301 26620-39937 23093-5183-1037-9618-3898-11238-9328-1398-4684 493-9950 6295-13369 7660-4513 16228-3577 24642-3352zm20357-31486c5234 351 10468 578 15568-323 4051-715 8017-2142 11831-4783-2374 2998-4799 5959-7296 8870-10299 12013-23351 25704-40831 21472-5138-1244-9454-4280-10855-9771-1209-4736 892-9922 6826-13105 7835-4202 16359-2923 24757-2361zm18854-30996c5244-122 10478-367 15476-1723 3969-1077 7791-2855 11352-5829-2094 3199-4243 6367-6467 9491-9176 12892-20942 27702-38732 25061-5229-776-9801-3412-11691-8754-1630-4609-6-9962 5619-13667 7424-4890 16029-4383 24443-4580zm-122259 94963c-2525-4598-4937-9248-6269-14253-1059-3974-1437-8172-651-12744-1717 3417-3380 6865-4968 10355-6552 14404-13466 32010-2259 46078 3293 4135 7867 6769 13437 5724 4804-900 8621-4991 9006-11715 507-8876-4245-16066-8295-23445zm20419-31085c-2525-4598-4937-9249-6270-14253-1058-3975-1437-8172-650-12744-1717 3416-3381 6864-4969 10355-6552 14404-13466 32010-2259 46078 3293 4135 7867 6769 13436 5725 4805-901 8622-4991 9007-11715 507-8876-4246-16067-8296-23445zm20419-31085c-2524-4598-4937-9248-6269-14253-1059-3974-1437-8172-650-12744-1717 3417-3381 6864-4969 10355-6552 14403-13466 32010-2259 46078 3294 4135 7867 6769 13437 5724 4804-901 8621-4991 9006-11715 508-8876-4245-16066-8295-23444zm19870-31383c-2525-4598-4937-9248-6270-14253-1059-3974-1437-8172-650-12744-1717 3417-3380 6864-4968 10355-6552 14404-13466 32010-2260 46078 3294 4135 7867 6769 13437 5724 4804-901 8621-4991 9006-11715 508-8876-4245-16066-8295-23444z"/></svg>