<svg xmlns="http://www.w3.org/2000/svg" fill="#ffffff" viewBox="0 0 333333 226635" shape-rendering="geometricPrecision" text-rendering="geometricPrecision" image-rendering="optimizeQuality" fill-rule="evenodd" clip-rule="evenodd"><path d="M141685 179985c9774-4317 19442-6740 28968-6922 9407-180 18536 1827 27331 6345 5436-7876 14522-13038 24816-13038 16642 0 30133 13491 30133 30133s-13491 30133-30133 30133-30133-13491-30133-30133c0-662 24-1319 66-1970-7034-4029-14328-5816-21831-5672-7745 148-15877 2352-24320 6276 20 453 32 907 32 1365 0 16642-13491 30133-30133 30133s-30133-13491-30133-30133 13491-30133 30133-30133c10543 0 19820 5416 25204 13616zM93378 12483C108456-5642 114268-40 132640 4920c22953 6196 45361 7711 69167 862 17713-5096 25460-12178 41457 5639 11733 13069 19023 34100 23389 47278 5225 15770 8806 31928 10971 48418H61658c7695-38741 16968-73535 31721-94633zM12159 117889h309014c6688 0 12159 5472 12159 12159 0 6688-5472 12159-12159 12159H12159C5471 142207 0 136735 0 130048c0-6688 5472-12159 12159-12159z" fill-rule="nonzero"/></svg>